<svg width="61" height="33" viewBox="0 0 61 33" fill="none" xmlns="http://www.w3.org/2000/svg">
<path d="M11.1423 7.34131H15.3012V25.6649H11.1423V17.8925H4.15884V25.6649H0V7.34131H4.15884V14.3486H11.1423V7.34131Z" fill="#002D4B"/>
<path d="M23.2318 7.73754C23.2318 8.45954 22.997 9.02911 22.5243 9.44332C22.0544 9.85755 21.4976 10.0647 20.8596 10.0647C20.2215 10.0647 19.6647 9.85755 19.1919 9.44332C18.7221 9.02911 18.4844 8.45954 18.4844 7.73754C18.4844 7.01552 18.7192 6.44596 19.1919 6.03174C19.6618 5.61752 20.2186 5.4104 20.8596 5.4104C21.5005 5.4104 22.0544 5.61752 22.5243 6.03174C22.9941 6.44596 23.2318 7.01552 23.2318 7.73754ZM22.8578 25.6642H18.8846V11.759H22.8578V25.6671V25.6642Z" fill="#002D4B"/>
<path d="M38.9111 15.0446C38.9111 16.1204 38.7777 17.0984 38.5109 17.9787C38.244 18.8589 37.8525 19.6184 37.3392 20.254C36.8229 20.8898 36.185 21.3817 35.4194 21.7355C34.6537 22.0893 33.7749 22.2648 32.7803 22.2648C32.2292 22.2648 31.713 22.213 31.2344 22.1066C30.7559 22.0001 30.2919 21.8505 29.8482 21.6578V33H25.875V8.56663C26.2288 8.46019 26.6377 8.35953 27.1017 8.26172C27.5628 8.16391 28.0472 8.0805 28.5547 8.01145C29.0623 7.94242 29.5756 7.88488 30.1006 7.83886C30.6254 7.79571 31.1271 7.77271 31.6056 7.77271C32.76 7.77271 33.7923 7.9453 34.6972 8.2876C35.6049 8.62992 36.3676 9.11606 36.9912 9.74313C37.6119 10.3702 38.0875 11.1325 38.4181 12.03C38.7458 12.9304 38.9111 13.9343 38.9111 15.0446ZM34.8596 15.1511C34.8596 13.9343 34.5842 12.962 34.0331 12.2285C33.4821 11.4978 32.6642 11.1325 31.5795 11.1325C31.2228 11.1325 30.8952 11.1469 30.5935 11.1728C30.2919 11.1987 30.0425 11.2303 29.8482 11.2648V18.3785C30.0977 18.5368 30.4224 18.6691 30.8197 18.7754C31.2199 18.8819 31.623 18.9337 32.032 18.9337C33.9142 18.9337 34.8567 17.6738 34.8567 15.154L34.8596 15.1511Z" fill="#002D4B"/>
<path d="M46.6403 7.33564C47.812 7.33564 48.7892 7.46796 49.5724 7.7326C50.3554 7.99725 50.9819 8.37696 51.4516 8.86885C51.9214 9.36361 52.255 9.96194 52.4521 10.6667C52.6465 11.3714 52.7451 12.1567 52.7451 13.0197V21.2179C52.1767 21.3415 51.385 21.4854 50.3728 21.6552C49.3606 21.8219 48.1339 21.9054 46.6954 21.9054C45.7876 21.9054 44.9669 21.8248 44.2303 21.6667C43.4936 21.5084 42.8586 21.2496 42.3249 20.887C41.7913 20.5246 41.3823 20.0528 41.0982 19.4719C40.8139 18.8908 40.6719 18.1774 40.6719 17.3287C40.6719 16.4801 40.8371 15.8301 41.1648 15.2663C41.4926 14.7025 41.9334 14.2537 42.4845 13.9172C43.0354 13.5835 43.6677 13.339 44.3781 13.1894C45.0888 13.0398 45.8253 12.9651 46.5909 12.9651C47.1072 12.9651 47.5654 12.9881 47.9627 13.0312C48.3629 13.0744 48.6878 13.1319 48.9372 13.2038V12.8327C48.9372 12.1625 48.7314 11.6246 48.3252 11.219C47.9163 10.8134 47.2058 10.612 46.1936 10.612C45.518 10.612 44.8509 10.6609 44.1955 10.7587C43.5371 10.8565 42.9687 10.9917 42.4903 11.1672L41.9827 7.99437C42.2147 7.92534 42.5019 7.84768 42.8499 7.77001C43.1949 7.68946 43.5748 7.62043 43.9837 7.55714C44.3926 7.49674 44.8248 7.44208 45.2772 7.39893C45.7296 7.35578 46.1878 7.33276 46.649 7.33276L46.6403 7.33564ZM46.9594 18.8649C47.3509 18.8649 47.7221 18.8562 48.0788 18.839C48.4325 18.8217 48.7198 18.7958 48.9314 18.7584V15.7697C48.772 15.7352 48.5312 15.7006 48.2122 15.6632C47.8931 15.6287 47.6002 15.6114 47.3335 15.6114C46.9594 15.6114 46.6083 15.6344 46.2807 15.6776C45.953 15.7208 45.6629 15.8071 45.4135 15.928C45.1642 16.0515 44.9698 16.2184 44.8277 16.4312C44.6857 16.6442 44.6131 16.9059 44.6131 17.2253C44.6131 17.8436 44.8219 18.2694 45.2395 18.5082C45.6571 18.7469 46.2313 18.8649 46.9594 18.8649Z" fill="#002D4B"/>
<path d="M60.4333 20.7831C59.2789 20.7658 58.3394 20.6421 57.6201 20.412C56.9009 20.1818 56.3325 19.8626 55.9148 19.4455C55.4972 19.0312 55.2131 18.5278 55.0622 17.9381C54.9114 17.3485 54.8359 16.6811 54.8359 15.9418V0.635717L58.8091 0V15.1508C58.8091 15.5046 58.8352 15.821 58.8903 16.103C58.9426 16.3848 59.047 16.6235 59.1979 16.8163C59.3486 17.0091 59.5661 17.1701 59.8503 17.2909C60.1346 17.4147 60.5174 17.4951 60.9959 17.5296L60.4362 20.7831H60.4333Z" fill="#002D4B"/>
<path d="M23.9199 27.5808H0V29.3602H23.9199V27.5808Z" fill="#FF5019"/>
<path d="M60.9992 23.6904H31.3984V25.7663H60.9992V23.6904Z" fill="#FF5019"/>
</svg>
